<?xml version="1.0" encoding="UTF-8"?>
<svg xmlns="http://www.w3.org/2000/svg" viewBox="0 0 200 200" width="200" height="200">
  <rect width="200" height="200" fill="#ffffff"/>
  <ellipse cx="100" cy="100" rx="28" ry="45" fill="#222222"/>
    <ellipse cx="58" cy="58" rx="33" ry="56" fill="#222222"/>
    <ellipse cx="142" cy="58" rx="33" ry="56" fill="#222222"/>
    <ellipse cx="17" cy="61" rx="32" ry="21" fill="#222222"/>
    <ellipse cx="183" cy="61" rx="32" ry="21" fill="#222222"/>
    <ellipse cx="64" cy="133" rx="42" ry="48" fill="#222222"/>
    <ellipse cx="136" cy="133" rx="42" ry="48" fill="#222222"/>
    <ellipse cx="48" cy="172" rx="23" ry="19" fill="#222222"/>
    <ellipse cx="152" cy="172" rx="23" ry="19" fill="#222222"/>
    <ellipse cx="37" cy="171" rx="37" ry="28" fill="#222222"/>
    <ellipse cx="163" cy="171" rx="37" ry="28" fill="#222222"/>
    <ellipse cx="17" cy="87" rx="35" ry="43" fill="#222222"/>
    <ellipse cx="183" cy="87" rx="35" ry="43" fill="#222222"/>
    <ellipse cx="27" cy="130" rx="43" ry="35" fill="#222222"/>
    <ellipse cx="173" cy="130" rx="43" ry="35" fill="#222222"/>
    <ellipse cx="61" cy="108" rx="27" ry="27" fill="#222222"/>
    <ellipse cx="139" cy="108" rx="27" ry="27" fill="#222222"/>
</svg>