<?xml version="1.0" encoding="UTF-8"?>
<svg xmlns="http://www.w3.org/2000/svg" viewBox="0 0 200 200" width="200" height="200">
  <rect width="200" height="200" fill="#ffffff"/>
  <ellipse cx="100" cy="100" rx="28" ry="45" fill="#222222"/>
    <ellipse cx="60" cy="131" rx="39" ry="51" fill="#222222"/>
    <ellipse cx="140" cy="131" rx="39" ry="51" fill="#222222"/>
    <ellipse cx="16" cy="31" rx="25" ry="18" fill="#222222"/>
    <ellipse cx="184" cy="31" rx="25" ry="18" fill="#222222"/>
    <ellipse cx="45" cy="79" rx="32" ry="55" fill="#222222"/>
    <ellipse cx="155" cy="79" rx="32" ry="55" fill="#222222"/>
    <ellipse cx="45" cy="138" rx="21" ry="49" fill="#222222"/>
    <ellipse cx="155" cy="138" rx="21" ry="49" fill="#222222"/>
    <ellipse cx="24" cy="159" rx="25" ry="25" fill="#222222"/>
    <ellipse cx="176" cy="159" rx="25" ry="25" fill="#222222"/>
    <ellipse cx="60" cy="110" rx="25" ry="35" fill="#222222"/>
    <ellipse cx="140" cy="110" rx="25" ry="35" fill="#222222"/>
    <ellipse cx="37" cy="140" rx="35" ry="37" fill="#222222"/>
    <ellipse cx="163" cy="140" rx="35" ry="37" fill="#222222"/>
    <ellipse cx="22" cy="44" rx="33" ry="48" fill="#222222"/>
    <ellipse cx="178" cy="44" rx="33" ry="48" fill="#222222"/>
</svg>