<?xml version="1.0" encoding="UTF-8"?>
<svg xmlns="http://www.w3.org/2000/svg" viewBox="0 0 200 200" width="200" height="200">
  <rect width="200" height="200" fill="#ffffff"/>
  <ellipse cx="100" cy="100" rx="28" ry="45" fill="#1a1a1a"/>
    <ellipse cx="36" cy="122" rx="24" ry="48" fill="#1a1a1a"/>
    <ellipse cx="164" cy="122" rx="24" ry="48" fill="#1a1a1a"/>
    <ellipse cx="26" cy="175" rx="23" ry="50" fill="#1a1a1a"/>
    <ellipse cx="174" cy="175" rx="23" ry="50" fill="#1a1a1a"/>
    <ellipse cx="24" cy="77" rx="37" ry="54" fill="#1a1a1a"/>
    <ellipse cx="176" cy="77" rx="37" ry="54" fill="#1a1a1a"/>
    <ellipse cx="29" cy="27" rx="34" ry="19" fill="#1a1a1a"/>
    <ellipse cx="171" cy="27" rx="34" ry="19" fill="#1a1a1a"/>
    <ellipse cx="46" cy="102" rx="18" ry="56" fill="#1a1a1a"/>
    <ellipse cx="154" cy="102" rx="18" ry="56" fill="#1a1a1a"/>
    <ellipse cx="53" cy="140" rx="37" ry="46" fill="#1a1a1a"/>
    <ellipse cx="147" cy="140" rx="37" ry="46" fill="#1a1a1a"/>
    <ellipse cx="20" cy="60" rx="45" ry="34" fill="#1a1a1a"/>
    <ellipse cx="180" cy="60" rx="45" ry="34" fill="#1a1a1a"/>
    <ellipse cx="45" cy="138" rx="50" ry="32" fill="#1a1a1a"/>
    <ellipse cx="155" cy="138" rx="50" ry="32" fill="#1a1a1a"/>
</svg>