<?xml version="1.0" encoding="UTF-8"?>
<svg xmlns="http://www.w3.org/2000/svg" viewBox="0 0 200 200" width="200" height="200">
  <rect width="200" height="200" fill="#ffffff"/>
  <ellipse cx="100" cy="100" rx="28" ry="45" fill="#2d2d2d"/>
    <ellipse cx="27" cy="116" rx="28" ry="27" fill="#2d2d2d"/>
    <ellipse cx="173" cy="116" rx="28" ry="27" fill="#2d2d2d"/>
    <ellipse cx="59" cy="38" rx="22" ry="32" fill="#2d2d2d"/>
    <ellipse cx="141" cy="38" rx="22" ry="32" fill="#2d2d2d"/>
    <ellipse cx="46" cy="124" rx="36" ry="23" fill="#2d2d2d"/>
    <ellipse cx="154" cy="124" rx="36" ry="23" fill="#2d2d2d"/>
    <ellipse cx="18" cy="149" rx="25" ry="39" fill="#2d2d2d"/>
    <ellipse cx="182" cy="149" rx="25" ry="39" fill="#2d2d2d"/>
    <ellipse cx="40" cy="105" rx="41" ry="27" fill="#2d2d2d"/>
    <ellipse cx="160" cy="105" rx="41" ry="27" fill="#2d2d2d"/>
    <ellipse cx="44" cy="98" rx="22" ry="50" fill="#2d2d2d"/>
    <ellipse cx="156" cy="98" rx="22" ry="50" fill="#2d2d2d"/>
    <ellipse cx="23" cy="77" rx="41" ry="22" fill="#2d2d2d"/>
    <ellipse cx="177" cy="77" rx="41" ry="22" fill="#2d2d2d"/>
    <ellipse cx="20" cy="144" rx="25" ry="48" fill="#2d2d2d"/>
    <ellipse cx="180" cy="144" rx="25" ry="48" fill="#2d2d2d"/>
</svg>